<svg width="1363" height="163" viewBox="0 0 1363 163" fill="none" xmlns="http://www.w3.org/2000/svg">
<path d="M0 15C0 6.71573 6.71573 0 15 0H37V163H15C6.71573 163 0 156.284 0 148V15Z" fill="#424242"/>
<rect width="1097" height="163" transform="translate(37)" fill="#F0F0F0"/>
<path d="M101.906 53.9219L94.3945 51.2383V48.0859L104.602 52.375V54.6367L101.906 53.9219ZM94.3945 56.1719L101.918 53.4297L104.602 52.7852V55.0352L94.3945 59.3242V56.1719ZM121.781 56.5352C121.781 56.2305 121.734 55.957 121.641 55.7148C121.555 55.4648 121.391 55.2383 121.148 55.0352C120.906 54.8242 120.566 54.6172 120.129 54.4141C119.691 54.2109 119.125 54 118.43 53.7812C117.656 53.5312 116.922 53.25 116.227 52.9375C115.539 52.625 114.93 52.2617 114.398 51.8477C113.875 51.4258 113.461 50.9375 113.156 50.3828C112.859 49.8281 112.711 49.1836 112.711 48.4492C112.711 47.7383 112.867 47.0938 113.18 46.5156C113.492 45.9297 113.93 45.4297 114.492 45.0156C115.055 44.5938 115.719 44.2695 116.484 44.043C117.258 43.8164 118.105 43.7031 119.027 43.7031C120.285 43.7031 121.383 43.9297 122.32 44.3828C123.258 44.8359 123.984 45.457 124.5 46.2461C125.023 47.0352 125.285 47.9375 125.285 48.9531H121.793C121.793 48.4531 121.688 48.0156 121.477 47.6406C121.273 47.2578 120.961 46.957 120.539 46.7383C120.125 46.5195 119.602 46.4102 118.969 46.4102C118.359 46.4102 117.852 46.5039 117.445 46.6914C117.039 46.8711 116.734 47.1172 116.531 47.4297C116.328 47.7344 116.227 48.0781 116.227 48.4609C116.227 48.75 116.297 49.0117 116.438 49.2461C116.586 49.4805 116.805 49.6992 117.094 49.9023C117.383 50.1055 117.738 50.2969 118.16 50.4766C118.582 50.6562 119.07 50.832 119.625 51.0039C120.555 51.2852 121.371 51.6016 122.074 51.9531C122.785 52.3047 123.379 52.6992 123.855 53.1367C124.332 53.5742 124.691 54.0703 124.934 54.625C125.176 55.1797 125.297 55.8086 125.297 56.5117C125.297 57.2539 125.152 57.918 124.863 58.5039C124.574 59.0898 124.156 59.5859 123.609 59.9922C123.062 60.3984 122.41 60.707 121.652 60.918C120.895 61.1289 120.047 61.2344 119.109 61.2344C118.266 61.2344 117.434 61.125 116.613 60.9062C115.793 60.6797 115.047 60.3398 114.375 59.8867C113.711 59.4336 113.18 58.8555 112.781 58.1523C112.383 57.4492 112.184 56.6172 112.184 55.6562H115.711C115.711 56.1875 115.793 56.6367 115.957 57.0039C116.121 57.3711 116.352 57.668 116.648 57.8945C116.953 58.1211 117.312 58.2852 117.727 58.3867C118.148 58.4883 118.609 58.5391 119.109 58.5391C119.719 58.5391 120.219 58.4531 120.609 58.2812C121.008 58.1094 121.301 57.8711 121.488 57.5664C121.684 57.2617 121.781 56.918 121.781 56.5352ZM133.688 48.3203V50.7109H126.305V48.3203H133.688ZM128.133 45.1914H131.508V57.1797C131.508 57.5469 131.555 57.8281 131.648 58.0234C131.75 58.2188 131.898 58.3555 132.094 58.4336C132.289 58.5039 132.535 58.5391 132.832 58.5391C133.043 58.5391 133.23 58.5312 133.395 58.5156C133.566 58.4922 133.711 58.4688 133.828 58.4453L133.84 60.9297C133.551 61.0234 133.238 61.0977 132.902 61.1523C132.566 61.207 132.195 61.2344 131.789 61.2344C131.047 61.2344 130.398 61.1133 129.844 60.8711C129.297 60.6211 128.875 60.2227 128.578 59.6758C128.281 59.1289 128.133 58.4102 128.133 57.5195V45.1914ZM143.109 57.9648V48.3203H146.484V61H143.309L143.109 57.9648ZM143.484 55.3633L144.48 55.3398C144.48 56.1836 144.383 56.9688 144.188 57.6953C143.992 58.4141 143.699 59.0391 143.309 59.5703C142.918 60.0938 142.426 60.5039 141.832 60.8008C141.238 61.0898 140.539 61.2344 139.734 61.2344C139.117 61.2344 138.547 61.1484 138.023 60.9766C137.508 60.7969 137.062 60.5195 136.688 60.1445C136.32 59.7617 136.031 59.2734 135.82 58.6797C135.617 58.0781 135.516 57.3555 135.516 56.5117V48.3203H138.891V56.5352C138.891 56.9102 138.934 57.2266 139.02 57.4844C139.113 57.7422 139.242 57.9531 139.406 58.1172C139.57 58.2812 139.762 58.3984 139.98 58.4688C140.207 58.5391 140.457 58.5742 140.73 58.5742C141.426 58.5742 141.973 58.4336 142.371 58.1523C142.777 57.8711 143.062 57.4883 143.227 57.0039C143.398 56.5117 143.484 55.9648 143.484 55.3633ZM156.551 58.2344V43H159.949V61H156.891L156.551 58.2344ZM148.535 54.8125V54.5664C148.535 53.5977 148.645 52.7188 148.863 51.9297C149.082 51.1328 149.402 50.4492 149.824 49.8789C150.246 49.3086 150.766 48.8672 151.383 48.5547C152 48.2422 152.703 48.0859 153.492 48.0859C154.234 48.0859 154.883 48.2422 155.438 48.5547C156 48.8672 156.477 49.3125 156.867 49.8906C157.266 50.4609 157.586 51.1367 157.828 51.918C158.07 52.6914 158.246 53.5391 158.355 54.4609V55C158.246 55.8828 158.07 56.7031 157.828 57.4609C157.586 58.2188 157.266 58.8828 156.867 59.4531C156.477 60.0156 156 60.4531 155.438 60.7656C154.875 61.0781 154.219 61.2344 153.469 61.2344C152.68 61.2344 151.977 61.0742 151.359 60.7539C150.75 60.4336 150.234 59.9844 149.812 59.4062C149.398 58.8281 149.082 58.1484 148.863 57.3672C148.645 56.5859 148.535 55.7344 148.535 54.8125ZM151.91 54.5664V54.8125C151.91 55.3359 151.949 55.8242 152.027 56.2773C152.113 56.7305 152.25 57.1328 152.438 57.4844C152.633 57.8281 152.883 58.0977 153.188 58.293C153.5 58.4805 153.879 58.5742 154.324 58.5742C154.902 58.5742 155.379 58.4453 155.754 58.1875C156.129 57.9219 156.414 57.5586 156.609 57.0977C156.812 56.6367 156.93 56.1055 156.961 55.5039V53.9688C156.938 53.4766 156.867 53.0352 156.75 52.6445C156.641 52.2461 156.477 51.9062 156.258 51.625C156.047 51.3438 155.781 51.125 155.461 50.9688C155.148 50.8125 154.777 50.7344 154.348 50.7344C153.91 50.7344 153.535 50.8359 153.223 51.0391C152.91 51.2344 152.656 51.5039 152.461 51.8477C152.273 52.1914 152.133 52.5977 152.039 53.0664C151.953 53.5273 151.91 54.0273 151.91 54.5664ZM166.148 48.3203V61H162.762V48.3203H166.148ZM162.551 45.0156C162.551 44.5234 162.723 44.1172 163.066 43.7969C163.41 43.4766 163.871 43.3164 164.449 43.3164C165.02 43.3164 165.477 43.4766 165.82 43.7969C166.172 44.1172 166.348 44.5234 166.348 45.0156C166.348 45.5078 166.172 45.9141 165.82 46.2344C165.477 46.5547 165.02 46.7148 164.449 46.7148C163.871 46.7148 163.41 46.5547 163.066 46.2344C162.723 45.9141 162.551 45.5078 162.551 45.0156ZM173.238 61H169.84V47.1953C169.84 46.2344 170.027 45.4258 170.402 44.7695C170.785 44.1055 171.32 43.6055 172.008 43.2695C172.703 42.9258 173.527 42.7539 174.48 42.7539C174.793 42.7539 175.094 42.7773 175.383 42.8242C175.672 42.8633 175.953 42.9141 176.227 42.9766L176.191 45.5195C176.043 45.4805 175.887 45.4531 175.723 45.4375C175.559 45.4219 175.367 45.4141 175.148 45.4141C174.742 45.4141 174.395 45.4844 174.105 45.625C173.824 45.7578 173.609 45.957 173.461 46.2227C173.312 46.4883 173.238 46.8125 173.238 47.1953V61ZM175.77 48.3203V50.7109H167.953V48.3203H175.77ZM181.301 59.5703L184.664 48.3203H188.285L183.188 62.9102C183.078 63.2305 182.93 63.5742 182.742 63.9414C182.562 64.3086 182.316 64.6562 182.004 64.9844C181.699 65.3203 181.312 65.5938 180.844 65.8047C180.383 66.0156 179.816 66.1211 179.145 66.1211C178.824 66.1211 178.562 66.1016 178.359 66.0625C178.156 66.0234 177.914 65.9688 177.633 65.8984V63.4258C177.719 63.4258 177.809 63.4258 177.902 63.4258C177.996 63.4336 178.086 63.4375 178.172 63.4375C178.617 63.4375 178.98 63.3867 179.262 63.2852C179.543 63.1836 179.77 63.0273 179.941 62.8164C180.113 62.6133 180.25 62.3477 180.352 62.0195L181.301 59.5703ZM179.895 48.3203L182.648 57.5078L183.129 61.082L180.832 61.3281L176.273 48.3203H179.895Z" fill="#888888"/>
<path d="M114.117 84.875H122.344V107.164C122.344 109.82 121.789 112.07 120.68 113.914C119.57 115.742 118.016 117.125 116.016 118.062C114.016 119 111.664 119.469 108.961 119.469C106.289 119.469 103.938 119 101.906 118.062C99.8906 117.125 98.3125 115.742 97.1719 113.914C96.0469 112.07 95.4844 109.82 95.4844 107.164V84.875H103.734V107.164C103.734 108.57 103.938 109.719 104.344 110.609C104.75 111.484 105.344 112.125 106.125 112.531C106.906 112.938 107.852 113.141 108.961 113.141C110.086 113.141 111.031 112.938 111.797 112.531C112.562 112.125 113.141 111.484 113.531 110.609C113.922 109.719 114.117 108.57 114.117 107.164V84.875ZM136.266 84.875V119H128.062V84.875H136.266ZM172.523 84.875H180.75V107.164C180.75 109.82 180.195 112.07 179.086 113.914C177.977 115.742 176.422 117.125 174.422 118.062C172.422 119 170.07 119.469 167.367 119.469C164.695 119.469 162.344 119 160.312 118.062C158.297 117.125 156.719 115.742 155.578 113.914C154.453 112.07 153.891 109.82 153.891 107.164V84.875H162.141V107.164C162.141 108.57 162.344 109.719 162.75 110.609C163.156 111.484 163.75 112.125 164.531 112.531C165.312 112.938 166.258 113.141 167.367 113.141C168.492 113.141 169.438 112.938 170.203 112.531C170.969 112.125 171.547 111.484 171.938 110.609C172.328 109.719 172.523 108.57 172.523 107.164V84.875ZM193.078 84.875L198.656 96.2188L204.234 84.875H213.609L204.094 101.797L213.867 119H204.398L198.656 107.445L192.914 119H183.422L193.219 101.797L183.68 84.875H193.078Z" fill="black"/>
<path d="M1134 0H1348C1356.28 0 1363 6.71573 1363 15V148C1363 156.284 1356.28 163 1348 163H1134V0Z" fill="#3786A8"/>
<path d="M1248.5 111.917C1244.51 111.917 1240.55 111.13 1236.86 109.601C1233.17 108.073 1229.82 105.832 1226.99 103.008C1221.29 97.3036 1218.08 89.567 1218.08 81.5C1218.08 73.433 1221.29 65.6964 1226.99 59.9922C1232.7 54.2879 1240.43 51.0833 1248.5 51.0833C1265.23 51.0833 1278.92 63.25 1278.92 78.4583C1278.92 83.2985 1276.99 87.9405 1273.57 91.363C1270.15 94.7856 1265.51 96.7083 1260.67 96.7083H1255.19C1254.28 96.7083 1253.67 97.3167 1253.67 98.2292C1253.67 98.5333 1253.97 98.8375 1253.97 99.1417C1255.19 100.662 1255.8 102.487 1255.8 104.312C1256.1 108.571 1252.76 111.917 1248.5 111.917ZM1248.5 57.1667C1242.05 57.1667 1235.86 59.7303 1231.29 64.2937C1226.73 68.8571 1224.17 75.0464 1224.17 81.5C1224.17 87.9536 1226.73 94.1429 1231.29 98.7063C1235.86 103.27 1242.05 105.833 1248.5 105.833C1249.41 105.833 1250.02 105.225 1250.02 104.312C1250.02 103.704 1249.72 103.4 1249.72 103.096C1248.5 101.575 1247.89 100.054 1247.89 98.2292C1247.89 93.9708 1251.24 90.625 1255.5 90.625H1260.67C1263.89 90.625 1266.99 89.3432 1269.27 87.0615C1271.55 84.7798 1272.83 81.6851 1272.83 78.4583C1272.83 66.5958 1261.88 57.1667 1248.5 57.1667ZM1231.77 75.4167C1234.2 75.4167 1236.33 77.5458 1236.33 79.9792C1236.33 82.4125 1234.2 84.5417 1231.77 84.5417C1229.34 84.5417 1227.21 82.4125 1227.21 79.9792C1227.21 77.5458 1229.34 75.4167 1231.77 75.4167ZM1240.9 63.25C1243.33 63.25 1245.46 65.3792 1245.46 67.8125C1245.46 70.2458 1243.33 72.375 1240.9 72.375C1238.46 72.375 1236.33 70.2458 1236.33 67.8125C1236.33 65.3792 1238.46 63.25 1240.9 63.25ZM1256.1 63.25C1258.54 63.25 1260.67 65.3792 1260.67 67.8125C1260.67 70.2458 1258.54 72.375 1256.1 72.375C1253.67 72.375 1251.54 70.2458 1251.54 67.8125C1251.54 65.3792 1253.67 63.25 1256.1 63.25ZM1265.23 75.4167C1267.66 75.4167 1269.79 77.5458 1269.79 79.9792C1269.79 82.4125 1267.66 84.5417 1265.23 84.5417C1262.8 84.5417 1260.67 82.4125 1260.67 79.9792C1260.67 77.5458 1262.8 75.4167 1265.23 75.4167Z" fill="white"/>
</svg>
